<svg width="125" height="31" viewBox="0 0 125 31" fill="none" xmlns="http://www.w3.org/2000/svg">
<g clip-path="url(#clip0_193_9740)">
<path d="M31.4871 0H35.673C35.8998 0 36.0854 0.179652 36.0854 0.399227V19.1829L43.6737 11.2782C43.7562 11.1983 43.8593 11.1584 43.983 11.1584H49.2618C49.6329 11.1584 49.8185 11.5776 49.5711 11.8371L41.6323 19.9614L50.2103 29.8822C50.4371 30.1417 50.2515 30.5409 49.901 30.5409H44.3335C44.2098 30.5409 44.0861 30.481 44.0036 30.3812L36.1679 20.6401H36.0854V30.1417C36.0854 30.3612 35.8998 30.5409 35.673 30.5409H31.4871C31.2603 30.5409 31.0747 30.3612 31.0747 30.1417V0.399227C31.0747 0.179652 31.2603 0 31.4871 0Z" fill="#007A4C"/>
<path d="M53.8808 11.1384H58.0667C58.2935 11.1384 58.4791 11.3181 58.4791 11.5377V14.2125H58.5616C59.1183 13.0747 59.9019 12.2163 60.9329 11.5975C61.9639 10.9787 63.1393 10.6594 64.4796 10.6594C64.7889 10.6594 65.0776 10.6793 65.3663 10.7392C65.5519 10.7791 65.7581 10.8191 65.9436 10.859C66.1292 10.8989 66.2529 11.0586 66.2529 11.2382V15.1107C66.2529 15.3702 66.0055 15.5499 65.7581 15.49C65.5106 15.4301 65.2632 15.3902 65.0363 15.3503C64.6239 15.2904 64.2322 15.2505 63.8404 15.2505C62.665 15.2505 61.7371 15.4501 61.0154 15.8693C60.3143 16.2885 59.7576 16.7675 59.3864 17.3065C59.0152 17.8455 58.7678 18.3844 58.6441 18.9234C58.5203 19.4623 58.4585 19.8616 58.4585 20.141V30.1217C58.4585 30.3413 58.2729 30.5209 58.0461 30.5209H53.8602C53.6333 30.5209 53.4478 30.3413 53.4478 30.1217V11.5377C53.4684 11.3181 53.654 11.1384 53.8808 11.1384Z" fill="#007A4C"/>
<path d="M72.9543 22.5364C73.1193 23.9935 73.6967 25.1114 74.7071 25.9298C75.7175 26.7283 76.9134 27.1474 78.3362 27.1474C79.5941 27.1474 80.6457 26.9079 81.4911 26.4089C82.2335 25.9697 82.8933 25.4308 83.4707 24.812C83.615 24.6523 83.8625 24.6323 84.0274 24.772L86.9555 26.9079C87.1411 27.0476 87.1823 27.3071 87.0174 27.4868C85.9245 28.7044 84.7079 29.6027 83.3882 30.1416C81.9448 30.7405 80.4189 31.0399 78.8517 31.0399C77.3465 31.0399 75.9237 30.8004 74.604 30.3213C73.2636 29.8422 72.1089 29.1436 71.1398 28.2653C70.1706 27.367 69.387 26.3091 68.8303 25.0515C68.2529 23.7939 67.9849 22.4166 67.9849 20.8796C67.9849 19.3425 68.2735 17.9453 68.8303 16.7076C69.4077 15.4501 70.1706 14.3921 71.1398 13.4939C72.1089 12.5956 73.2636 11.9169 74.604 11.4378C75.9443 10.9588 77.3671 10.7192 78.8517 10.7192C80.2333 10.7192 81.5117 10.9588 82.6665 11.4179C83.8212 11.897 84.811 12.5756 85.6358 13.4539C86.4606 14.3522 87.0998 15.4301 87.5535 16.7476C88.0071 18.0451 88.2339 19.5621 88.2339 21.2588V22.197C88.2339 22.4166 88.0484 22.5962 87.8215 22.5962H72.9543V22.5364ZM83.2232 18.9034C83.2026 17.4861 82.7283 16.3483 81.8417 15.5299C80.955 14.7115 79.7178 14.2923 78.13 14.2923C76.6247 14.2923 75.4494 14.7115 74.5627 15.5499C73.6967 16.3883 73.1605 17.5061 72.9543 18.9034H83.2232Z" fill="#007A4C"/>
<path d="M108.731 27.6265H108.648C107.926 28.8042 106.957 29.6626 105.72 30.2015C104.503 30.7405 103.184 31 101.761 31C100.194 31 98.8122 30.7405 97.6162 30.2215C96.3996 29.7025 95.3686 28.9839 94.5026 28.0657C93.6365 27.1475 92.9767 26.0695 92.5436 24.8319C92.09 23.5943 91.8838 22.2569 91.8838 20.8397C91.8838 19.4224 92.1106 18.085 92.5849 16.8474C93.0591 15.6098 93.719 14.5319 94.5644 13.6137C95.4099 12.6954 96.4409 11.9768 97.6368 11.4578C98.8328 10.9388 100.132 10.6793 101.555 10.6793C102.503 10.6793 103.328 10.7791 104.05 10.9588C104.771 11.1384 105.411 11.3979 105.967 11.6774C106.524 11.9768 106.998 12.2962 107.39 12.6355C107.782 12.9749 108.091 13.2943 108.359 13.6336H108.483V0.399227C108.483 0.179652 108.669 0 108.896 0H113.081C113.308 0 113.494 0.179652 113.494 0.399227V30.1217C113.494 30.3413 113.308 30.5209 113.081 30.5209H109.143C108.916 30.5209 108.731 30.3413 108.731 30.1217V27.6265ZM96.8945 20.8397C96.8945 21.5982 97.0182 22.3168 97.2863 23.0155C97.5544 23.7141 97.9462 24.3329 98.4617 24.8719C98.9772 25.4108 99.5958 25.85 100.317 26.1693C101.039 26.4887 101.864 26.6484 102.771 26.6484C103.679 26.6484 104.503 26.4887 105.225 26.1693C105.947 25.85 106.565 25.4108 107.081 24.8719C107.596 24.3329 107.988 23.7141 108.256 23.0155C108.524 22.3168 108.648 21.5982 108.648 20.8397C108.648 20.0811 108.524 19.3625 108.256 18.6639C107.988 17.9652 107.596 17.3464 107.081 16.8075C106.565 16.2685 105.947 15.8294 105.225 15.51C104.503 15.1906 103.679 15.0309 102.771 15.0309C101.864 15.0309 101.039 15.1906 100.317 15.51C99.5958 15.8294 98.9772 16.2685 98.4617 16.8075C97.9462 17.3464 97.5544 17.9652 97.2863 18.6639C97.0182 19.3625 96.8945 20.0811 96.8945 20.8397Z" fill="#007A4C"/>
<path d="M118.587 4.57116C118.587 3.79266 118.876 3.11398 119.474 2.5351C120.072 1.95622 120.835 1.67676 121.742 1.67676C122.649 1.67676 123.433 1.95622 124.052 2.49517C124.67 3.05409 125 3.73278 125 4.57116C125 5.40953 124.691 6.10818 124.052 6.64714C123.433 7.20606 122.649 7.46555 121.742 7.46555C120.814 7.46555 120.072 7.1861 119.474 6.60722C118.876 6.02834 118.587 5.34965 118.587 4.57116ZM119.701 11.1384H123.887C124.113 11.1384 124.299 11.3181 124.299 11.5377V30.1217C124.299 30.3413 124.113 30.5209 123.887 30.5209H119.701C119.474 30.5209 119.288 30.3413 119.288 30.1217V11.5377C119.288 11.3181 119.474 11.1384 119.701 11.1384Z" fill="#007A4C"/>
<path d="M24.1673 2.35545L9.23828 26.1494C8.61967 27.1475 7.11439 27.1275 6.5164 26.1294L0.309705 15.9292C0.0210214 15.4501 0.0210214 14.8313 0.330325 14.3522C3.17592 9.821 6.0009 5.28977 8.84649 0.778498C9.13517 0.319387 9.65068 0.0399275 10.2074 0.0399275H22.8064C24.0436 0.0199661 24.8066 1.33742 24.1673 2.35545Z" fill="#007A4C"/>
<path d="M24.1667 28.2254L9.21704 4.43143C8.59843 3.45332 7.11377 3.45332 6.49516 4.43143L0.226607 14.5119C-0.082697 14.991 -0.082697 15.6098 0.226607 16.1088C3.0722 20.6401 6.00028 25.311 8.84587 29.8422C9.13456 30.3014 9.65006 30.5808 10.2068 30.5808H22.8058C24.043 30.5609 24.8059 29.2634 24.1667 28.2254Z" fill="#00AC69"/>
<path d="M22.8058 30.5808H10.2068C9.65006 30.5808 9.13455 30.3014 8.84587 29.8423C8.10354 28.6446 7.34059 27.4469 6.57764 26.2492C7.21686 27.1475 8.63966 27.1076 9.23765 26.1694L16.0423 15.3304L24.1461 28.2653C24.8059 29.2634 24.043 30.5808 22.8058 30.5808Z" fill="#95E1BF"/>
</g>
<defs>
<clipPath id="clip0_193_9740">
<rect width="125" height="31" fill="white"/>
</clipPath>
</defs>
</svg>
